<svg xmlns="http://www.w3.org/2000/svg" xmlns:xlink="http://www.w3.org/1999/xlink" width="1080" zoomAndPan="magnify" viewBox="0 0 810 809.999993" height="1080" preserveAspectRatio="xMidYMid meet" version="1.0"><defs><clipPath id="f91f3b08df"><path d="M 261.496094 0 L 548.746094 0 L 548.746094 405.273438 L 261.496094 405.273438 Z M 261.496094 0 " clip-rule="nonzero"/></clipPath><clipPath id="89f47ba1f3"><path d="M 212 0 L 222 0 L 222 210 L 212 210 Z M 212 0 " clip-rule="nonzero"/></clipPath><clipPath id="73f327eb3b"><path d="M 146 213 L 287.5 213 L 287.5 285 L 146 285 Z M 146 213 " clip-rule="nonzero"/></clipPath><clipPath id="641665f9e6"><path d="M 146 269 L 287.5 269 L 287.5 300 L 146 300 Z M 146 269 " clip-rule="nonzero"/></clipPath><clipPath id="5f09bfd700"><path d="M 66 0 L 76 0 L 76 316 L 66 316 Z M 66 0 " clip-rule="nonzero"/></clipPath><clipPath id="922cb57e56"><path d="M 0.496094 319 L 142 319 L 142 391 L 0.496094 391 Z M 0.496094 319 " clip-rule="nonzero"/></clipPath><clipPath id="455d5fc42f"><path d="M 0.496094 375 L 142 375 L 142 405 L 0.496094 405 Z M 0.496094 375 " clip-rule="nonzero"/></clipPath><clipPath id="c2113e0c7b"><rect x="0" width="288" y="0" height="406"/></clipPath></defs><g clip-path="url(#f91f3b08df)"><g transform="matrix(1, 0, 0, 1, 261, 0.000000000000039746)"><g clip-path="url(#c2113e0c7b)"><g clip-path="url(#89f47ba1f3)"><path fill="#424242" d="M 216.757812 209.871094 C 217.039062 209.867188 217.316406 209.839844 217.589844 209.785156 C 217.867188 209.730469 218.132812 209.652344 218.390625 209.542969 C 218.652344 209.4375 218.894531 209.304688 219.128906 209.148438 C 219.363281 208.992188 219.578125 208.816406 219.777344 208.621094 C 219.972656 208.421875 220.148438 208.207031 220.304688 207.972656 C 220.460938 207.738281 220.59375 207.496094 220.699219 207.234375 C 220.808594 206.976562 220.886719 206.710938 220.941406 206.433594 C 220.996094 206.160156 221.023438 205.882812 221.027344 205.601562 L 221.027344 -6.5 C 221.027344 -6.78125 221 -7.058594 220.945312 -7.332031 C 220.890625 -7.609375 220.808594 -7.875 220.699219 -8.132812 C 220.59375 -8.394531 220.460938 -8.636719 220.304688 -8.871094 C 220.152344 -9.105469 219.972656 -9.320312 219.777344 -9.519531 C 219.578125 -9.714844 219.363281 -9.894531 219.128906 -10.046875 C 218.898438 -10.203125 218.652344 -10.335938 218.390625 -10.441406 C 218.132812 -10.550781 217.867188 -10.628906 217.59375 -10.683594 C 217.316406 -10.738281 217.039062 -10.765625 216.757812 -10.765625 C 216.480469 -10.765625 216.203125 -10.738281 215.925781 -10.683594 C 215.652344 -10.628906 215.386719 -10.550781 215.128906 -10.441406 C 214.867188 -10.335938 214.621094 -10.203125 214.390625 -10.046875 C 214.15625 -9.894531 213.941406 -9.714844 213.742188 -9.519531 C 213.546875 -9.320312 213.367188 -9.105469 213.210938 -8.871094 C 213.058594 -8.636719 212.925781 -8.394531 212.820312 -8.132812 C 212.710938 -7.875 212.628906 -7.609375 212.574219 -7.332031 C 212.519531 -7.058594 212.492188 -6.78125 212.492188 -6.5 L 212.492188 205.601562 C 212.492188 205.882812 212.519531 206.160156 212.578125 206.433594 C 212.632812 206.710938 212.710938 206.976562 212.820312 207.234375 C 212.925781 207.496094 213.058594 207.738281 213.214844 207.972656 C 213.367188 208.207031 213.546875 208.421875 213.742188 208.621094 C 213.941406 208.816406 214.15625 208.992188 214.390625 209.148438 C 214.621094 209.304688 214.867188 209.4375 215.128906 209.542969 C 215.386719 209.652344 215.652344 209.730469 215.925781 209.785156 C 216.203125 209.839844 216.480469 209.867188 216.757812 209.871094 Z M 216.757812 209.871094 " fill-opacity="1" fill-rule="nonzero"/></g><g clip-path="url(#73f327eb3b)"><path fill="#5e81ac" d="M 146.066406 284.320312 L 287.453125 284.320312 C 287.453125 252.390625 266.292969 225.414062 237.234375 216.644531 C 235.339844 216.074219 233.414062 215.578125 231.457031 215.164062 C 230.171875 214.894531 228.882812 214.65625 227.585938 214.457031 C 226.292969 214.253906 224.992188 214.089844 223.6875 213.960938 C 222.382812 213.832031 221.074219 213.742188 219.761719 213.683594 C 218.453125 213.628906 217.140625 213.609375 215.832031 213.628906 C 214.519531 213.644531 213.210938 213.699219 211.902344 213.789062 C 210.59375 213.878906 209.289062 214.007812 207.988281 214.167969 C 206.6875 214.332031 205.390625 214.53125 204.101562 214.765625 C 202.8125 215 201.527344 215.269531 200.253906 215.578125 C 198.976562 215.882812 197.710938 216.222656 196.457031 216.601562 C 195.199219 216.976562 193.957031 217.390625 192.722656 217.835938 C 191.488281 218.28125 190.269531 218.761719 189.0625 219.273438 C 187.855469 219.789062 186.664062 220.335938 185.488281 220.914062 C 184.3125 221.496094 183.15625 222.109375 182.011719 222.753906 C 180.871094 223.398438 179.746094 224.074219 178.644531 224.78125 C 177.539062 225.488281 176.453125 226.222656 175.390625 226.992188 C 174.328125 227.757812 173.285156 228.554688 172.269531 229.378906 C 171.25 230.207031 170.253906 231.058594 169.28125 231.941406 C 168.308594 232.820312 167.363281 233.726562 166.441406 234.660156 C 165.523438 235.59375 164.628906 236.550781 163.757812 237.535156 C 162.890625 238.519531 162.050781 239.527344 161.242188 240.554688 C 160.429688 241.585938 159.644531 242.636719 158.894531 243.710938 C 158.140625 244.785156 157.417969 245.878906 156.722656 246.992188 C 156.03125 248.105469 155.371094 249.238281 154.742188 250.386719 C 154.113281 251.539062 153.515625 252.703125 152.949219 253.886719 C 152.386719 255.070312 151.855469 256.269531 151.359375 257.484375 C 150.859375 258.695312 150.394531 259.921875 149.96875 261.160156 C 149.539062 262.398438 149.140625 263.648438 148.78125 264.910156 C 148.421875 266.171875 148.097656 267.441406 147.808594 268.722656 C 147.519531 270 147.265625 271.285156 147.046875 272.578125 C 146.832031 273.871094 146.648438 275.171875 146.503906 276.472656 C 146.359375 277.777344 146.25 279.082031 146.175781 280.394531 C 146.101562 281.703125 146.066406 283.011719 146.066406 284.324219 Z M 146.066406 284.320312 " fill-opacity="1" fill-rule="nonzero"/></g><g clip-path="url(#641665f9e6)"><path fill="#625178" d="M 146.066406 284.175781 C 146.066406 292.414062 177.714844 299.09375 216.757812 299.09375 C 255.804688 299.09375 287.453125 292.414062 287.453125 284.175781 C 287.453125 277.441406 266.335938 271.753906 237.320312 269.898438 C 230.8125 269.484375 223.910156 269.253906 216.757812 269.253906 C 209.609375 269.253906 202.707031 269.480469 196.199219 269.898438 C 167.179688 271.753906 146.066406 277.441406 146.066406 284.175781 Z M 146.066406 284.175781 " fill-opacity="1" fill-rule="nonzero"/></g><path fill="#ffffff" d="M 196.007812 272.71875 C 196.007812 273.429688 196.042969 274.136719 196.117188 274.839844 C 196.191406 275.546875 196.300781 276.246094 196.445312 276.941406 C 196.589844 277.636719 196.765625 278.320312 196.980469 278.996094 C 197.195312 279.671875 197.445312 280.335938 197.726562 280.984375 C 198.011719 281.632812 198.324219 282.269531 198.671875 282.886719 C 199.019531 283.503906 199.398438 284.101562 199.808594 284.683594 C 200.21875 285.261719 200.65625 285.816406 201.121094 286.351562 C 201.585938 286.886719 202.078125 287.394531 202.597656 287.878906 C 203.117188 288.363281 203.65625 288.820312 204.222656 289.246094 C 204.785156 289.675781 205.371094 290.074219 205.976562 290.441406 C 206.582031 290.8125 207.207031 291.148438 207.847656 291.453125 C 208.488281 291.757812 209.140625 292.027344 209.808594 292.265625 C 210.476562 292.503906 211.15625 292.707031 211.84375 292.875 C 212.535156 293.039062 213.230469 293.171875 213.933594 293.269531 C 214.632812 293.367188 215.339844 293.425781 216.046875 293.453125 C 216.757812 293.476562 217.464844 293.464844 218.171875 293.414062 C 218.878906 293.367188 219.582031 293.28125 220.28125 293.164062 C 220.980469 293.042969 221.671875 292.886719 222.351562 292.695312 C 223.035156 292.503906 223.707031 292.277344 224.367188 292.019531 C 225.027344 291.757812 225.671875 291.464844 226.300781 291.140625 C 226.929688 290.8125 227.542969 290.457031 228.132812 290.066406 C 228.726562 289.679688 229.300781 289.261719 229.847656 288.8125 C 230.398438 288.367188 230.925781 287.894531 231.425781 287.390625 C 231.929688 286.890625 232.402344 286.367188 232.851562 285.816406 C 233.296875 285.265625 233.714844 284.695312 234.105469 284.101562 C 234.496094 283.507812 234.851562 282.898438 235.179688 282.269531 C 235.507812 281.640625 235.800781 280.996094 236.058594 280.335938 C 236.320312 279.675781 236.546875 279.003906 236.738281 278.324219 C 236.929688 277.640625 237.085938 276.949219 237.207031 276.25 C 237.328125 275.554688 237.414062 274.851562 237.460938 274.144531 C 237.511719 273.433594 237.523438 272.726562 237.5 272.019531 C 237.476562 271.308594 237.417969 270.605469 237.320312 269.902344 C 230.8125 269.488281 223.910156 269.257812 216.757812 269.257812 C 209.609375 269.257812 202.707031 269.484375 196.199219 269.902344 C 196.070312 270.835938 196.007812 271.777344 196.007812 272.71875 Z M 196.007812 272.71875 " fill-opacity="1" fill-rule="nonzero"/><path fill="#5e81ac" d="M 202.0625 206.738281 L 202.0625 237.890625 L 231.457031 237.890625 L 231.457031 206.738281 C 231.457031 206.082031 231.390625 205.433594 231.261719 204.789062 C 231.136719 204.144531 230.945312 203.519531 230.695312 202.914062 C 230.445312 202.308594 230.136719 201.734375 229.769531 201.1875 C 229.40625 200.640625 228.992188 200.136719 228.527344 199.671875 C 228.066406 199.210938 227.5625 198.796875 227.015625 198.429688 C 226.46875 198.066406 225.894531 197.757812 225.289062 197.507812 C 224.683594 197.257812 224.058594 197.066406 223.414062 196.9375 C 222.769531 196.808594 222.121094 196.746094 221.464844 196.746094 L 212.054688 196.746094 C 211.398438 196.746094 210.75 196.808594 210.105469 196.9375 C 209.464844 197.066406 208.839844 197.253906 208.230469 197.507812 C 207.625 197.757812 207.050781 198.066406 206.503906 198.429688 C 205.960938 198.792969 205.453125 199.207031 204.992188 199.671875 C 204.527344 200.136719 204.113281 200.640625 203.746094 201.1875 C 203.382812 201.730469 203.074219 202.308594 202.824219 202.914062 C 202.574219 203.519531 202.382812 204.144531 202.257812 204.789062 C 202.128906 205.429688 202.0625 206.082031 202.0625 206.738281 Z M 202.0625 206.738281 " fill-opacity="1" fill-rule="nonzero"/><g clip-path="url(#5f09bfd700)"><path fill="#424242" d="M 71.230469 315.753906 C 71.511719 315.753906 71.789062 315.726562 72.0625 315.671875 C 72.335938 315.617188 72.601562 315.535156 72.863281 315.429688 C 73.121094 315.320312 73.367188 315.191406 73.597656 315.035156 C 73.832031 314.878906 74.046875 314.703125 74.246094 314.503906 C 74.445312 314.304688 74.621094 314.089844 74.777344 313.859375 C 74.933594 313.625 75.0625 313.378906 75.171875 313.121094 C 75.277344 312.863281 75.359375 312.59375 75.414062 312.320312 C 75.46875 312.046875 75.496094 311.769531 75.496094 311.488281 L 75.496094 -6.5 C 75.496094 -6.78125 75.46875 -7.058594 75.414062 -7.332031 C 75.359375 -7.609375 75.277344 -7.875 75.171875 -8.132812 C 75.0625 -8.394531 74.933594 -8.636719 74.777344 -8.871094 C 74.621094 -9.105469 74.445312 -9.320312 74.246094 -9.519531 C 74.046875 -9.714844 73.832031 -9.894531 73.601562 -10.046875 C 73.367188 -10.203125 73.121094 -10.335938 72.863281 -10.441406 C 72.601562 -10.550781 72.335938 -10.628906 72.0625 -10.683594 C 71.789062 -10.738281 71.511719 -10.765625 71.230469 -10.765625 C 70.949219 -10.765625 70.671875 -10.738281 70.398438 -10.683594 C 70.121094 -10.628906 69.855469 -10.550781 69.597656 -10.441406 C 69.339844 -10.335938 69.09375 -10.203125 68.859375 -10.046875 C 68.625 -9.894531 68.410156 -9.714844 68.214844 -9.519531 C 68.015625 -9.320312 67.839844 -9.105469 67.683594 -8.871094 C 67.527344 -8.636719 67.394531 -8.394531 67.289062 -8.132812 C 67.179688 -7.875 67.101562 -7.609375 67.046875 -7.332031 C 66.992188 -7.058594 66.964844 -6.78125 66.964844 -6.5 L 66.964844 311.488281 C 66.964844 311.769531 66.992188 312.046875 67.046875 312.320312 C 67.101562 312.59375 67.183594 312.863281 67.289062 313.121094 C 67.398438 313.378906 67.527344 313.625 67.683594 313.859375 C 67.839844 314.089844 68.015625 314.304688 68.214844 314.503906 C 68.410156 314.703125 68.628906 314.878906 68.859375 315.035156 C 69.09375 315.191406 69.339844 315.320312 69.597656 315.429688 C 69.855469 315.535156 70.125 315.617188 70.398438 315.671875 C 70.671875 315.726562 70.949219 315.753906 71.230469 315.753906 Z M 71.230469 315.753906 " fill-opacity="1" fill-rule="nonzero"/></g><g clip-path="url(#922cb57e56)"><path fill="#5e81ac" d="M 0.535156 390.203125 L 141.925781 390.203125 C 141.925781 358.089844 120.511719 330.980469 91.179688 322.367188 C 89.453125 321.859375 87.703125 321.417969 85.925781 321.042969 C 84.644531 320.769531 83.351562 320.53125 82.058594 320.332031 C 80.761719 320.132812 79.460938 319.964844 78.15625 319.839844 C 76.851562 319.710938 75.542969 319.617188 74.234375 319.5625 C 72.921875 319.507812 71.613281 319.488281 70.300781 319.503906 C 68.988281 319.523438 67.679688 319.574219 66.371094 319.664062 C 65.0625 319.753906 63.757812 319.882812 62.457031 320.042969 C 61.15625 320.207031 59.859375 320.40625 58.570312 320.640625 C 57.28125 320.875 56 321.148438 54.722656 321.453125 C 53.449219 321.757812 52.183594 322.101562 50.925781 322.476562 C 49.671875 322.855469 48.425781 323.265625 47.191406 323.710938 C 45.960938 324.15625 44.738281 324.636719 43.53125 325.152344 C 42.328125 325.664062 41.136719 326.210938 39.960938 326.792969 C 38.78125 327.371094 37.625 327.984375 36.480469 328.628906 C 35.339844 329.273438 34.214844 329.949219 33.113281 330.65625 C 32.007812 331.363281 30.925781 332.101562 29.859375 332.867188 C 28.796875 333.636719 27.757812 334.429688 26.738281 335.257812 C 25.71875 336.082031 24.722656 336.933594 23.75 337.816406 C 22.78125 338.695312 21.832031 339.605469 20.914062 340.535156 C 19.992188 341.46875 19.097656 342.429688 18.230469 343.410156 C 17.359375 344.394531 16.523438 345.402344 15.710938 346.429688 C 14.898438 347.460938 14.117188 348.511719 13.363281 349.585938 C 12.609375 350.660156 11.886719 351.753906 11.195312 352.867188 C 10.5 353.980469 9.839844 355.113281 9.210938 356.261719 C 8.582031 357.414062 7.984375 358.582031 7.421875 359.765625 C 6.855469 360.949219 6.324219 362.144531 5.828125 363.359375 C 5.328125 364.574219 4.867188 365.800781 4.4375 367.039062 C 4.007812 368.277344 3.613281 369.527344 3.253906 370.789062 C 2.890625 372.050781 2.566406 373.320312 2.277344 374.597656 C 1.988281 375.875 1.734375 377.164062 1.519531 378.457031 C 1.300781 379.75 1.117188 381.046875 0.972656 382.351562 C 0.828125 383.652344 0.71875 384.960938 0.644531 386.269531 C 0.574219 387.578125 0.535156 388.890625 0.535156 390.199219 Z M 0.535156 390.203125 " fill-opacity="1" fill-rule="nonzero"/></g><g clip-path="url(#455d5fc42f)"><path fill="#625178" d="M 0.535156 390.0625 C 0.535156 398.300781 32.183594 404.980469 71.230469 404.980469 C 110.273438 404.980469 141.925781 398.300781 141.925781 390.0625 C 141.925781 383.332031 120.808594 377.640625 91.789062 375.785156 C 85.285156 375.371094 78.378906 375.140625 71.230469 375.140625 C 64.078125 375.140625 57.175781 375.367188 50.667969 375.785156 C 21.652344 377.640625 0.535156 383.328125 0.535156 390.0625 Z M 0.535156 390.0625 " fill-opacity="1" fill-rule="nonzero"/></g><path fill="#ffffff" d="M 50.476562 378.601562 C 50.476562 379.308594 50.515625 380.015625 50.585938 380.722656 C 50.660156 381.429688 50.769531 382.128906 50.914062 382.820312 C 51.058594 383.515625 51.238281 384.199219 51.453125 384.875 C 51.667969 385.550781 51.914062 386.214844 52.199219 386.867188 C 52.480469 387.515625 52.796875 388.148438 53.144531 388.769531 C 53.492188 389.386719 53.871094 389.984375 54.277344 390.5625 C 54.6875 391.140625 55.125 391.699219 55.589844 392.234375 C 56.058594 392.769531 56.550781 393.277344 57.066406 393.761719 C 57.585938 394.246094 58.128906 394.699219 58.691406 395.128906 C 59.257812 395.558594 59.84375 395.957031 60.449219 396.324219 C 61.054688 396.691406 61.675781 397.027344 62.316406 397.332031 C 62.957031 397.636719 63.613281 397.910156 64.28125 398.144531 C 64.949219 398.382812 65.625 398.585938 66.316406 398.753906 C 67.003906 398.921875 67.699219 399.054688 68.402344 399.152344 C 69.105469 399.246094 69.808594 399.308594 70.519531 399.332031 C 71.226562 399.355469 71.933594 399.34375 72.640625 399.296875 C 73.347656 399.25 74.050781 399.164062 74.75 399.042969 C 75.449219 398.921875 76.140625 398.765625 76.824219 398.578125 C 77.507812 398.386719 78.175781 398.160156 78.835938 397.898438 C 79.496094 397.640625 80.140625 397.347656 80.769531 397.019531 C 81.402344 396.695312 82.011719 396.335938 82.605469 395.949219 C 83.199219 395.5625 83.769531 395.144531 84.320312 394.695312 C 84.871094 394.25 85.394531 393.773438 85.898438 393.273438 C 86.398438 392.773438 86.875 392.246094 87.320312 391.695312 C 87.769531 391.148438 88.1875 390.574219 88.574219 389.984375 C 88.964844 389.390625 89.324219 388.78125 89.648438 388.148438 C 89.976562 387.519531 90.269531 386.875 90.53125 386.21875 C 90.789062 385.558594 91.015625 384.886719 91.207031 384.203125 C 91.398438 383.523438 91.554688 382.832031 91.675781 382.132812 C 91.796875 381.433594 91.882812 380.730469 91.933594 380.023438 C 91.980469 379.316406 91.992188 378.609375 91.96875 377.898438 C 91.945312 377.191406 91.886719 376.484375 91.789062 375.785156 C 85.285156 375.367188 78.378906 375.140625 71.230469 375.140625 C 64.078125 375.140625 57.175781 375.367188 50.667969 375.785156 C 50.542969 376.71875 50.476562 377.65625 50.476562 378.601562 Z M 50.476562 378.601562 " fill-opacity="1" fill-rule="nonzero"/><path fill="#5e81ac" d="M 56.535156 312.621094 L 56.535156 343.773438 L 85.925781 343.773438 L 85.925781 312.621094 C 85.925781 311.964844 85.859375 311.316406 85.734375 310.671875 C 85.605469 310.03125 85.414062 309.40625 85.164062 308.800781 C 84.914062 308.195312 84.605469 307.617188 84.242188 307.074219 C 83.878906 306.527344 83.460938 306.023438 83 305.558594 C 82.535156 305.09375 82.03125 304.679688 81.484375 304.316406 C 80.941406 303.953125 80.363281 303.644531 79.757812 303.394531 C 79.152344 303.140625 78.527344 302.953125 77.882812 302.824219 C 77.242188 302.695312 76.59375 302.632812 75.9375 302.632812 L 66.527344 302.632812 C 65.871094 302.632812 65.21875 302.695312 64.578125 302.824219 C 63.933594 302.949219 63.308594 303.140625 62.703125 303.390625 C 62.097656 303.640625 61.519531 303.949219 60.976562 304.316406 C 60.429688 304.679688 59.925781 305.09375 59.460938 305.558594 C 58.996094 306.019531 58.582031 306.527344 58.21875 307.070312 C 57.855469 307.617188 57.546875 308.191406 57.292969 308.800781 C 57.042969 309.40625 56.855469 310.03125 56.726562 310.671875 C 56.597656 311.316406 56.535156 311.964844 56.535156 312.621094 Z M 56.535156 312.621094 " fill-opacity="1" fill-rule="nonzero"/><path fill="#625178" d="M 158.496094 244.269531 C 176.636719 245.558594 191.917969 242.867188 204.714844 237.890625 C 214.523438 234.066406 223.4375 228.742188 231.457031 221.914062 C 233.492188 220.195312 235.414062 218.429688 237.234375 216.632812 C 235.339844 216.058594 233.414062 215.5625 231.457031 215.152344 L 231.457031 206.730469 C 231.457031 206.074219 231.390625 205.425781 231.261719 204.78125 C 231.136719 204.140625 230.945312 203.515625 230.695312 202.910156 C 230.445312 202.300781 230.136719 201.726562 229.769531 201.179688 C 229.40625 200.636719 228.992188 200.132812 228.527344 199.667969 C 228.066406 199.203125 227.5625 198.789062 227.015625 198.425781 C 226.46875 198.058594 225.894531 197.753906 225.289062 197.5 C 224.683594 197.25 224.058594 197.058594 223.414062 196.933594 C 222.769531 196.804688 222.121094 196.738281 221.464844 196.738281 L 212.054688 196.738281 C 211.398438 196.738281 210.75 196.804688 210.105469 196.929688 C 209.464844 197.058594 208.839844 197.25 208.230469 197.5 C 207.625 197.75 207.050781 198.058594 206.503906 198.421875 C 205.960938 198.789062 205.453125 199.203125 204.992188 199.667969 C 204.527344 200.128906 204.113281 200.632812 203.746094 201.179688 C 203.382812 201.726562 203.074219 202.300781 202.824219 202.90625 C 202.574219 203.511719 202.382812 204.136719 202.257812 204.78125 C 202.128906 205.425781 202.0625 206.074219 202.0625 206.730469 L 202.0625 215.152344 C 197.675781 216.085938 193.414062 217.425781 189.28125 219.167969 C 185.148438 220.914062 181.214844 223.035156 177.484375 225.527344 C 173.753906 228.019531 170.292969 230.84375 167.097656 233.992188 C 163.90625 237.144531 161.039062 240.570312 158.496094 244.269531 Z M 158.496094 244.269531 " fill-opacity="1" fill-rule="nonzero"/><path fill="#625178" d="M 11.238281 352.808594 C 30.054688 351.695312 45.351562 348.4375 57.769531 343.78125 C 69.554688 339.375 78.757812 333.707031 85.933594 327.4375 C 87.820312 325.785156 89.570312 324.09375 91.1875 322.367188 C 89.460938 321.859375 87.710938 321.417969 85.933594 321.042969 L 85.933594 312.621094 C 85.929688 311.964844 85.867188 311.316406 85.738281 310.671875 C 85.613281 310.03125 85.421875 309.40625 85.171875 308.800781 C 84.917969 308.195312 84.613281 307.617188 84.246094 307.074219 C 83.882812 306.527344 83.46875 306.023438 83.003906 305.558594 C 82.542969 305.09375 82.035156 304.679688 81.492188 304.316406 C 80.945312 303.953125 80.371094 303.644531 79.765625 303.394531 C 79.160156 303.140625 78.535156 302.953125 77.890625 302.824219 C 77.246094 302.695312 76.597656 302.632812 75.941406 302.632812 L 66.53125 302.632812 C 65.875 302.632812 65.226562 302.695312 64.582031 302.824219 C 63.9375 302.949219 63.316406 303.140625 62.707031 303.390625 C 62.101562 303.640625 61.527344 303.949219 60.980469 304.316406 C 60.433594 304.679688 59.929688 305.09375 59.46875 305.558594 C 59.003906 306.019531 58.589844 306.527344 58.222656 307.070312 C 57.859375 307.617188 57.550781 308.191406 57.300781 308.800781 C 57.050781 309.40625 56.859375 310.03125 56.730469 310.671875 C 56.605469 311.316406 56.539062 311.964844 56.539062 312.621094 L 56.539062 321.042969 C 54.222656 321.535156 51.933594 322.144531 49.675781 322.867188 C 47.417969 323.59375 45.203125 324.425781 43.03125 325.375 C 40.855469 326.320312 38.734375 327.375 36.667969 328.53125 C 34.601562 329.691406 32.597656 330.953125 30.65625 332.3125 C 28.714844 333.675781 26.847656 335.128906 25.050781 336.679688 C 23.257812 338.226562 21.542969 339.863281 19.914062 341.582031 C 18.28125 343.304688 16.742188 345.101562 15.292969 346.976562 C 13.84375 348.855469 12.492188 350.796875 11.238281 352.808594 Z M 11.238281 352.808594 " fill-opacity="1" fill-rule="nonzero"/></g></g></g></svg>